AnglesData
version=1
nRows=10
nColumns=2
inDegrees=no
endheader
time	ankle_angle_r
      0.00000000	     -1.57079633
      0.01000000	     -1.22173048
      0.02000000	     -0.87266463
      0.03000000	     -0.52359878
      0.04000000	     -0.17453293
      0.05000000	      0.17453293
      0.06000000	      0.52359878
      0.07000000	      0.87266463
      0.08000000	      1.22173048
      0.09000000	      1.57079633
